<?xml version="1.0" standalone="no"?>
<!DOCTYPE svg PUBLIC "-//W3C//DTD SVG 20010904//EN"
 "http://www.w3.org/TR/2001/REC-SVG-20010904/DTD/svg10.dtd">
<svg version="1.0" xmlns="http://www.w3.org/2000/svg"
 width="500.000000pt" height="500.000000pt" viewBox="0 0 500.000000 500.000000"
 preserveAspectRatio="xMidYMid meet">
<g transform="translate(0.000000,500.000000) scale(0.100000,-0.100000)"
fill="#000000" stroke="none">
<path d="M1453 3279 c37 -58 87 -138 487 -786 140 -227 257 -413 260 -413 3 0
17 19 31 43 15 23 64 102 109 175 l83 133 103 -168 c57 -92 107 -173 111 -180
5 -8 75 97 193 289 203 329 253 410 446 723 72 116 134 216 139 224 6 11 4 13
-11 7 -10 -5 -131 -48 -269 -96 -137 -48 -258 -91 -268 -95 -12 -5 6 30 48 95
43 66 60 100 48 96 -43 -17 -504 -176 -525 -181 -20 -5 -401 118 -523 169 -21
9 -40 14 -42 12 -2 -2 20 -41 50 -87 70 -110 72 -113 61 -106 -5 3 -126 46
-269 96 -143 49 -269 93 -279 97 -14 5 -10 -6 17 -47z m189 -66 c37 -14 72
-22 77 -19 5 4 11 1 13 -4 2 -6 14 -13 28 -15 36 -7 187 -64 173 -64 -7 -1
-13 -6 -13 -12 0 -7 -8 -19 -18 -28 -33 -30 -51 -67 -40 -82 8 -11 9 -10 4 4
-3 11 -2 16 4 12 6 -3 10 -14 10 -23 0 -9 9 -28 20 -42 11 -14 20 -31 20 -38
0 -7 4 -11 9 -8 5 3 12 -1 15 -10 3 -8 2 -13 -2 -10 -4 2 -8 -4 -8 -14 0 -10
6 -16 12 -13 7 2 28 -23 48 -57 36 -61 47 -98 24 -84 -7 4 -8 3 -4 -4 4 -6 13
-9 21 -6 9 4 19 -4 26 -20 7 -14 16 -26 22 -26 5 0 7 -7 4 -15 -4 -8 -1 -17 5
-21 7 -5 8 -2 3 6 -5 9 -4 11 3 6 7 -4 12 -16 12 -27 0 -10 5 -19 10 -19 6 0
10 -4 10 -9 0 -16 54 -71 70 -71 19 1 50 24 50 38 0 5 6 12 14 15 8 3 16 16
18 29 2 14 9 22 18 20 8 -2 12 -1 8 3 -3 4 -2 20 2 36 5 17 5 31 -1 35 -5 3
-6 11 -3 17 4 7 4 9 -1 5 -4 -4 -18 15 -32 42 -13 26 -31 51 -40 54 -12 5 -13
9 -3 21 11 13 10 14 -5 9 -12 -5 -16 -4 -12 3 4 6 0 16 -8 23 -8 7 -15 18 -15
26 0 7 -12 25 -27 40 -16 15 -22 23 -15 19 11 -6 12 -3 3 14 -7 11 -17 21 -23
21 -6 0 -9 3 -5 6 3 4 -5 21 -18 39 -14 17 -25 36 -25 41 0 5 -9 16 -20 24
-11 8 -20 20 -20 28 0 7 -5 10 -12 6 -7 -5 -9 -2 -5 9 4 11 2 14 -9 10 -9 -3
-12 0 -9 8 3 8 -3 31 -14 51 -27 54 -10 62 64 32 33 -14 89 -33 125 -44 36
-10 96 -30 134 -44 39 -13 75 -23 80 -20 6 3 2 -1 -8 -8 -34 -22 -76 -72 -76
-89 0 -9 9 -28 20 -41 10 -14 17 -27 15 -30 -10 -10 62 -81 83 -83 11 -1 19 2
16 7 -3 4 2 8 11 8 9 0 14 4 11 9 -4 5 -3 11 2 13 14 6 52 66 52 83 0 10 5 13
11 9 9 -5 10 1 5 20 -5 21 -4 26 6 20 7 -4 10 -4 6 0 -3 4 -8 6 -10 4 -7 -6
-36 27 -30 36 3 5 0 6 -5 3 -6 -4 -21 3 -34 15 -16 14 -18 19 -7 15 9 -3 18
-1 20 4 2 6 40 22 86 38 45 15 79 31 75 36 -5 4 -3 5 3 2 6 -4 44 4 83 18 39
13 71 21 71 18 0 -3 6 -1 13 4 6 6 28 15 47 21 28 9 32 9 20 -1 -8 -6 -15 -16
-16 -22 0 -5 -6 -23 -13 -40 -7 -16 -14 -35 -15 -41 -1 -6 -20 -29 -41 -51
-22 -21 -41 -44 -43 -52 -1 -7 -18 -37 -37 -67 -19 -30 -31 -54 -27 -54 4 -1
-6 -12 -23 -26 -16 -15 -25 -23 -18 -20 8 5 8 0 0 -18 -7 -14 -14 -23 -16 -20
-8 7 -32 -36 -26 -46 3 -6 -1 -10 -10 -10 -9 0 -14 -4 -10 -9 3 -5 -2 -17 -11
-25 -8 -9 -12 -16 -8 -16 4 0 0 -8 -8 -17 -30 -34 -31 -61 -4 -109 14 -26 23
-51 19 -58 -3 -6 -3 -8 1 -5 4 4 18 -4 31 -17 13 -13 30 -24 38 -24 15 0 67
44 68 57 0 5 9 18 19 31 11 12 20 27 20 32 0 6 4 10 10 10 5 0 7 7 3 15 -3 10
-1 15 7 13 7 -2 14 5 15 14 2 10 22 45 44 78 23 34 39 65 36 70 -3 5 1 12 8
17 7 4 23 29 35 56 12 26 25 47 28 47 3 0 2 -5 -2 -12 -4 -7 -3 -8 5 -4 7 4
10 13 8 19 -2 7 2 18 10 25 22 23 27 61 9 81 -9 10 -13 21 -9 25 4 4 -1 4 -12
0 -14 -6 -17 -4 -12 9 4 10 0 20 -9 25 -10 6 7 15 57 31 39 12 87 30 107 39
20 8 42 16 47 17 17 2 115 34 128 42 20 12 47 14 47 2 0 -5 6 -7 13 -3 13 8
-21 -36 -38 -48 -5 -4 -6 -8 -2 -8 4 0 -3 -15 -17 -33 -15 -19 -26 -39 -26
-46 0 -7 -4 -9 -10 -6 -5 3 -10 -2 -10 -12 0 -10 -9 -29 -20 -43 -11 -14 -20
-31 -20 -38 0 -7 -5 -10 -12 -6 -6 4 -8 3 -5 -3 6 -10 -61 -124 -97 -165 -8
-9 -12 -19 -8 -22 3 -3 -4 -16 -15 -29 -11 -12 -23 -31 -27 -42 -6 -16 -9 -17
-17 -5 -8 12 -9 11 -5 -6 4 -12 -1 -28 -13 -41 -11 -11 -17 -24 -14 -27 4 -3
2 -6 -4 -6 -11 0 -38 -50 -34 -63 1 -5 -3 -6 -9 -2 -5 3 -10 1 -10 -5 0 -6 -5
-8 -12 -4 -6 4 -8 3 -4 -4 3 -6 2 -13 -4 -17 -5 -3 -10 -12 -10 -18 0 -7 4 -6
10 3 6 9 10 10 10 3 0 -6 -10 -19 -22 -27 -12 -9 -18 -16 -13 -16 4 0 0 -10
-11 -22 -31 -36 -58 -82 -43 -73 8 4 4 -2 -8 -14 -21 -20 -27 -34 -24 -54 1
-5 -3 -6 -8 -3 -5 4 -12 -3 -16 -14 -3 -11 -11 -20 -16 -20 -6 0 -7 -5 -3 -12
4 -6 0 -16 -8 -22 -8 -6 -23 -25 -33 -43 -10 -18 -22 -30 -27 -27 -4 3 -6 -1
-3 -8 3 -7 -3 -18 -14 -25 -16 -10 -20 -8 -32 15 -7 15 -24 41 -36 58 -13 17
-20 34 -16 37 3 4 1 7 -5 7 -17 0 -24 37 -12 62 10 21 10 21 -3 6 -18 -22 -31
-23 -23 -2 3 8 2 12 -4 9 -5 -3 -20 14 -32 39 -12 25 -25 43 -29 40 -4 -2 -10
0 -14 6 -10 16 -34 12 -52 -10 -10 -11 -23 -20 -30 -20 -7 0 -10 -6 -7 -13 2
-7 -11 -33 -31 -58 -19 -24 -35 -50 -35 -58 0 -8 -6 -11 -16 -7 -14 5 -15 4
-4 -9 10 -12 10 -15 0 -15 -8 0 -10 -3 -7 -7 4 -3 -1 -12 -11 -20 -10 -9 -11
-11 -2 -7 13 7 13 5 1 -9 -7 -9 -17 -14 -22 -11 -5 3 -6 -3 -2 -12 4 -12 3
-15 -5 -10 -7 4 -12 1 -12 -8 0 -20 -7 -20 -26 -1 -9 8 -12 20 -8 26 4 7 3 9
-3 6 -6 -4 -14 4 -17 18 -4 14 -11 23 -16 20 -9 -6 -14 8 -11 28 0 4 -3 7 -7
7 -5 0 -17 18 -27 40 -10 22 -22 40 -28 40 -5 0 -6 7 -3 16 3 8 2 13 -2 10 -4
-2 -14 9 -21 25 -7 16 -17 27 -22 23 -5 -3 -8 -2 -7 3 4 17 -14 53 -24 47 -6
-4 -9 -1 -6 7 3 8 -2 20 -11 27 -13 11 -13 12 -1 6 10 -5 8 1 -5 17 -38 45
-62 84 -69 112 -3 15 -10 26 -14 23 -4 -2 -21 20 -37 50 -16 30 -32 54 -36 54
-4 0 -10 11 -13 24 -3 14 -18 38 -32 55 -15 18 -22 36 -18 43 4 7 4 10 -1 6
-5 -5 -36 38 -71 95 -34 56 -67 107 -73 114 -6 7 -11 19 -11 27 0 8 -5 18 -12
22 -7 4 -8 3 -4 -4 4 -7 5 -12 2 -12 -8 0 -47 83 -41 88 3 3 -3 11 -13 18 -19
15 1 10 120 -33z m1301 -182 c4 -4 -58 -115 -138 -247 -79 -131 -148 -245
-153 -253 -6 -10 -19 5 -49 55 l-41 69 21 35 c11 19 66 109 122 200 56 91 107
175 114 187 l11 22 53 -30 c28 -17 55 -34 60 -38z m-794 -157 l133 -217 -21
-36 c-12 -20 -29 -51 -38 -68 -20 -39 -26 -41 -40 -10 -6 12 -72 123 -147 246
-75 123 -138 228 -139 233 -2 9 91 68 108 68 6 0 70 -97 144 -216z m315 180
c44 -24 46 -28 33 -48 -7 -11 -26 -42 -43 -68 -16 -27 -31 -48 -34 -48 -3 1
-23 31 -46 68 l-40 68 40 26 c23 14 42 27 42 27 1 1 22 -11 48 -25z"/>
<path d="M2350 1830 l0 -170 33 0 32 0 -3 48 -3 47 20 -23 c11 -13 29 -35 39
-49 15 -20 25 -24 57 -21 l40 3 -49 52 -48 53 48 44 49 45 -40 1 c-32 0 -46
-7 -78 -37 l-38 -38 3 108 3 107 -32 0 -33 0 0 -170z"/>
<path d="M1544 1810 l41 -150 37 0 c41 0 36 -11 74 143 9 37 19 66 21 63 2 -2
11 -33 19 -67 33 -144 31 -139 72 -139 l38 0 22 83 c12 45 30 113 41 150 l20
68 -36 -3 -37 -3 -25 -104 c-27 -116 -24 -117 -62 27 -21 81 -21 82 -54 82
-32 0 -32 0 -54 -87 -35 -138 -34 -138 -62 -20 l-24 107 -36 0 -36 0 41 -150z"/>
<path d="M2580 1810 l0 -150 83 0 c90 0 121 13 137 56 11 28 -2 71 -28 90 -9
8 -12 14 -6 14 20 0 36 53 25 82 -17 45 -47 58 -133 58 l-78 0 0 -150z m145
60 c0 -21 -6 -26 -37 -31 -45 -7 -48 -5 -48 33 0 28 2 29 43 26 37 -3 42 -6
42 -28z m10 -120 c0 -23 -4 -25 -47 -28 -47 -3 -48 -2 -48 26 0 38 2 39 52 33
38 -5 43 -9 43 -31z"/>
<path d="M1959 1831 c-23 -23 -29 -38 -29 -71 0 -62 41 -100 107 -100 56 0 85
17 103 59 31 75 -17 141 -102 141 -41 0 -54 -5 -79 -29z m113 -38 c22 -20 23
-41 1 -65 -20 -22 -41 -23 -65 -1 -22 20 -23 41 -1 65 20 22 41 23 65 1z"/>
<path d="M2190 1760 l0 -100 33 0 32 0 -3 54 c-3 44 0 58 17 75 12 12 29 21
40 21 13 0 19 7 19 25 0 30 -31 34 -60 8 -17 -15 -18 -15 -18 0 0 12 -9 17
-30 17 l-30 0 0 -100z"/>
<path d="M2859 1831 c-62 -63 -20 -171 67 -171 21 0 45 7 54 15 15 14 18 14
30 0 7 -8 25 -15 40 -15 24 0 27 3 22 25 -2 14 -8 25 -13 25 -5 0 -9 34 -9 75
l0 75 -36 0 c-23 0 -33 -4 -28 -11 5 -8 1 -8 -14 0 -38 20 -81 13 -113 -18z
m113 -38 c22 -20 23 -41 1 -65 -20 -22 -41 -23 -65 -1 -22 20 -23 41 -1 65 20
22 41 23 65 1z"/>
<path d="M3124 1852 c-6 -4 -16 -17 -23 -29 -16 -31 1 -61 45 -79 19 -8 34
-18 34 -24 0 -18 -22 -22 -38 -7 -18 17 -52 7 -52 -15 0 -38 96 -52 130 -18
36 36 24 72 -32 101 -27 14 -37 24 -30 31 7 7 16 6 29 -1 14 -7 23 -7 31 1 17
17 15 35 -4 42 -22 8 -77 7 -90 -2z"/>
<path d="M3289 1831 c-23 -23 -29 -38 -29 -71 0 -33 6 -48 29 -71 25 -24 37
-29 81 -29 41 0 56 5 75 25 14 13 25 29 25 35 0 16 -56 12 -70 -5 -7 -8 -20
-15 -30 -15 -16 0 -50 29 -50 43 0 4 36 7 81 7 70 0 80 2 75 16 -3 9 -6 21 -6
28 0 8 -12 25 -26 40 -22 21 -36 26 -76 26 -41 0 -54 -5 -79 -29z m102 -21
c30 -17 22 -26 -21 -25 -38 0 -55 17 -27 28 19 8 27 8 48 -3z"/>
</g>
</svg>
